<svg width="20" height="21" viewBox="0 0 20 21" fill="none" xmlns="http://www.w3.org/2000/svg">
<path d="M10 14V14.5" stroke="white" stroke-width="2" stroke-linecap="round" stroke-linejoin="round"/>
<path d="M10 7.5V11.5" stroke="white" stroke-width="2" stroke-linecap="round" stroke-linejoin="round"/>
<path d="M3.00781 18.5H17.0133C17.3397 18.4977 17.6606 18.4158 17.948 18.2613C18.2354 18.1069 18.4806 17.8847 18.6621 17.614C18.8436 17.3433 18.956 17.0325 18.9895 16.7085C19.0229 16.3845 18.9764 16.0573 18.854 15.7554L11.7512 3.52971C11.5782 3.21773 11.3245 2.95768 11.0167 2.77659C10.7088 2.59551 10.3579 2.5 10.0005 2.5C9.64313 2.5 9.29225 2.59551 8.98438 2.77659C8.67651 2.95768 8.42287 3.21773 8.24985 3.52971L1.14708 15.7554C1.02698 16.0504 0.979351 16.3698 1.00818 16.6869C1.03701 17.004 1.14145 17.3096 1.3128 17.5782C1.48414 17.8469 1.71742 18.0707 1.99314 18.231C2.26886 18.3914 2.57904 18.4836 2.89776 18.5" stroke="white" stroke-width="2" stroke-linecap="round" stroke-linejoin="round"/>
</svg>
