<svg width="24" height="24" viewBox="0 0 24 24" fill="none" xmlns="http://www.w3.org/2000/svg">
<path d="M3 21H7L20 8.00005C20.5129 7.46605 20.7961 6.75224 20.7886 6.01184C20.7812 5.27144 20.4837 4.56347 19.9601 4.0399C19.4366 3.51633 18.7286 3.2189 17.9882 3.21145C17.2478 3.204 16.534 3.48712 16 4.00005L3 17V21Z" stroke="white" stroke-width="2" stroke-linecap="round" stroke-linejoin="round"/>
<path d="M14.5 5.5L18.5 9.5" stroke="white" stroke-width="2" stroke-linecap="round" stroke-linejoin="round"/>
<path d="M12 8L7 3L3 7L8 12" stroke="white" stroke-width="2" stroke-linecap="round" stroke-linejoin="round"/>
<path d="M7 8L5.5 9.5" stroke="white" stroke-width="2" stroke-linecap="round" stroke-linejoin="round"/>
<path d="M16 12L21 17L17 21L12 16" stroke="white" stroke-width="2" stroke-linecap="round" stroke-linejoin="round"/>
<path d="M16 17L14.5 18.5" stroke="white" stroke-width="2" stroke-linecap="round" stroke-linejoin="round"/>
</svg>
